dataset
version=1
nRows=22
nColumns=39
inDegrees=no
endheader
time	sternoclavicular_r2	sternoclavicular_r3	unrotscap_r3	unrotscap_r2	acromioclavicular_r2	acromioclavicular_r3	acromioclavicular_r1	unrothum_r1	unrothum_r3	unrothum_r2	elv_angle	shoulder_elv	shoulder1_r2	shoulder_rot	elbow_flexion	pro_sup	deviation	flexion	cmc_abduction	cmc_flexion	mp_flexion	ip_flexion	mcp2_flexion	mcp2_abduction	pm2_flexion	md2_flexion	mcp3_flexion	mcp3_abduction	pm3_flexion	md3_flexion	mcp4_flexion	mcp4_abduction	pm4_flexion	md4_flexion	mcp5_flexion	mcp5_abduction	pm5_flexion	md5_flexion
1.410000	-0.010781	-0.283958	0.112171	0.071715	0.063015	0.044064	-0.122113	-0.079819	-0.056909	0.145113	0.088129	0.027437	0.146525	0.146525	1.200182	1.270673	0.000000	0.000000	0.000000	0.000000	0.000000	0.000000	0.000000	0.000000	0.000000	0.000000	0.000000	0.000000	0.000000	0.000000	0.000000	0.000000	0.000000	0.000000	0.000000	0.000000	0.000000	0.000000
1.415000	-0.010766	-0.284166	0.112394	0.071607	0.062931	0.043941	-0.122473	-0.080224	-0.057071	0.145052	0.087945	0.027437	0.146525	0.146525	1.202185	1.270757	0.000000	0.000000	0.000000	0.000000	0.000000	0.000000	0.000000	0.000000	0.000000	0.000000	0.000000	0.000000	0.000000	0.000000	0.000000	0.000000	0.000000	0.000000	0.000000	0.000000	0.000000	0.000000
1.420000	-0.010749	-0.284379	0.112625	0.071489	0.062839	0.043815	-0.122844	-0.080641	-0.057242	0.144983	0.087749	0.027437	0.146525	0.146525	1.204320	1.270833	0.000000	0.000000	0.000000	0.000000	0.000000	0.000000	0.000000	0.000000	0.000000	0.000000	0.000000	0.000000	0.000000	0.000000	0.000000	0.000000	0.000000	0.000000	0.000000	0.000000	0.000000	0.000000
1.425000	-0.010731	-0.284595	0.112862	0.071363	0.062738	0.043685	-0.123225	-0.081067	-0.057422	0.144908	0.087542	0.027437	0.146525	0.146525	1.206591	1.270900	0.000000	0.000000	0.000000	0.000000	0.000000	0.000000	0.000000	0.000000	0.000000	0.000000	0.000000	0.000000	0.000000	0.000000	0.000000	0.000000	0.000000	0.000000	0.000000	0.000000	0.000000	0.000000
1.430000	-0.010711	-0.284815	0.113105	0.071228	0.062629	0.043551	-0.123616	-0.081504	-0.057612	0.144824	0.087322	0.027437	0.146525	0.146525	1.209002	1.270958	0.000000	0.000000	0.000000	0.000000	0.000000	0.000000	0.000000	0.000000	0.000000	0.000000	0.000000	0.000000	0.000000	0.000000	0.000000	0.000000	0.000000	0.000000	0.000000	0.000000	0.000000	0.000000
1.435000	-0.010690	-0.285038	0.113355	0.071084	0.062511	0.043413	-0.124017	-0.081951	-0.057811	0.144734	0.087091	0.027437	0.146525	0.146525	1.211558	1.271007	0.000000	0.000000	0.000000	0.000000	0.000000	0.000000	0.000000	0.000000	0.000000	0.000000	0.000000	0.000000	0.000000	0.000000	0.000000	0.000000	0.000000	0.000000	0.000000	0.000000	0.000000	0.000000
1.440000	-0.010668	-0.285264	0.113611	0.070931	0.062386	0.043272	-0.124427	-0.082408	-0.058019	0.144636	0.086849	0.027437	0.146525	0.146525	1.214262	1.271047	0.000000	0.000000	0.000000	0.000000	0.000000	0.000000	0.000000	0.000000	0.000000	0.000000	0.000000	0.000000	0.000000	0.000000	0.000000	0.000000	0.000000	0.000000	0.000000	0.000000	0.000000	0.000000
1.445000	-0.010645	-0.285493	0.113872	0.070770	0.062252	0.043127	-0.124846	-0.082874	-0.058237	0.144531	0.086596	0.027437	0.146525	0.146525	1.217119	1.271078	0.000000	0.000000	0.000000	0.000000	0.000000	0.000000	0.000000	0.000000	0.000000	0.000000	0.000000	0.000000	0.000000	0.000000	0.000000	0.000000	0.000000	0.000000	0.000000	0.000000	0.000000	0.000000
1.450000	-0.010620	-0.285724	0.114138	0.070600	0.062111	0.042978	-0.125274	-0.083349	-0.058463	0.144419	0.086332	0.027437	0.146525	0.146525	1.220131	1.271100	0.000000	0.000000	0.000000	0.000000	0.000000	0.000000	0.000000	0.000000	0.000000	0.000000	0.000000	0.000000	0.000000	0.000000	0.000000	0.000000	0.000000	0.000000	0.000000	0.000000	0.000000	0.000000
1.455000	-0.010593	-0.285956	0.114410	0.070421	0.061962	0.042825	-0.125711	-0.083832	-0.058699	0.144300	0.086057	0.027437	0.146525	0.146525	1.223302	1.271112	0.000000	0.000000	0.000000	0.000000	0.000000	0.000000	0.000000	0.000000	0.000000	0.000000	0.000000	0.000000	0.000000	0.000000	0.000000	0.000000	0.000000	0.000000	0.000000	0.000000	0.000000	0.000000
1.460000	-0.010565	-0.286190	0.114686	0.070235	0.061806	0.042668	-0.126155	-0.084325	-0.058943	0.144175	0.085772	0.027437	0.146525	0.146525	1.226636	1.271116	0.000000	0.000000	0.000000	0.000000	0.000000	0.000000	0.000000	0.000000	0.000000	0.000000	0.000000	0.000000	0.000000	0.000000	0.000000	0.000000	0.000000	0.000000	0.000000	0.000000	0.000000	0.000000
1.465000	-0.010536	-0.286425	0.114966	0.070041	0.061642	0.042507	-0.126607	-0.084825	-0.059195	0.144043	0.085477	0.027437	0.146525	0.146525	1.230136	1.271110	0.000000	0.000000	0.000000	0.000000	0.000000	0.000000	0.000000	0.000000	0.000000	0.000000	0.000000	0.000000	0.000000	0.000000	0.000000	0.000000	0.000000	0.000000	0.000000	0.000000	0.000000	0.000000
1.470000	-0.010505	-0.286662	0.115250	0.069838	0.061471	0.042342	-0.127067	-0.085333	-0.059457	0.143905	0.085173	0.027437	0.146525	0.146525	1.233804	1.271095	0.000000	0.000000	0.000000	0.000000	0.000000	0.000000	0.000000	0.000000	0.000000	0.000000	0.000000	0.000000	0.000000	0.000000	0.000000	0.000000	0.000000	0.000000	0.000000	0.000000	0.000000	0.000000
1.475000	-0.010473	-0.286898	0.115538	0.069629	0.061293	0.042174	-0.127533	-0.085848	-0.059726	0.143761	0.084859	0.027437	0.146525	0.146525	1.237645	1.271070	0.000000	0.000000	0.000000	0.000000	0.000000	0.000000	0.000000	0.000000	0.000000	0.000000	0.000000	0.000000	0.000000	0.000000	0.000000	0.000000	0.000000	0.000000	0.000000	0.000000	0.000000	0.000000
1.480000	-0.010440	-0.287135	0.115830	0.069412	0.061109	0.042002	-0.128006	-0.086370	-0.060004	0.143612	0.084536	0.027437	0.146525	0.146525	1.241660	1.271037	0.000000	0.000000	0.000000	0.000000	0.000000	0.000000	0.000000	0.000000	0.000000	0.000000	0.000000	0.000000	0.000000	0.000000	0.000000	0.000000	0.000000	0.000000	0.000000	0.000000	0.000000	0.000000
1.485000	-0.010405	-0.287372	0.116124	0.069188	0.060918	0.041826	-0.128485	-0.086898	-0.060289	0.143457	0.084204	0.027437	0.146525	0.146525	1.245852	1.270994	0.000000	0.000000	0.000000	0.000000	0.000000	0.000000	0.000000	0.000000	0.000000	0.000000	0.000000	0.000000	0.000000	0.000000	0.000000	0.000000	0.000000	0.000000	0.000000	0.000000	0.000000	0.000000
1.490000	-0.010369	-0.287609	0.116422	0.068957	0.060721	0.041646	-0.128970	-0.087432	-0.060582	0.143297	0.083865	0.027437	0.146525	0.146525	1.250223	1.270942	0.000000	0.000000	0.000000	0.000000	0.000000	0.000000	0.000000	0.000000	0.000000	0.000000	0.000000	0.000000	0.000000	0.000000	0.000000	0.000000	0.000000	0.000000	0.000000	0.000000	0.000000	0.000000
1.495000	-0.010331	-0.287845	0.116721	0.068720	0.060519	0.041463	-0.129459	-0.087972	-0.060882	0.143132	0.083517	0.027437	0.146525	0.146525	1.254775	1.270881	0.000000	0.000000	0.000000	0.000000	0.000000	0.000000	0.000000	0.000000	0.000000	0.000000	0.000000	0.000000	0.000000	0.000000	0.000000	0.000000	0.000000	0.000000	0.000000	0.000000	0.000000	0.000000
1.500000	-0.010293	-0.288081	0.117023	0.068477	0.060311	0.041277	-0.129954	-0.088516	-0.061190	0.142962	0.083162	0.027437	0.146525	0.146525	1.259510	1.270811	0.000000	0.000000	0.000000	0.000000	0.000000	0.000000	0.000000	0.000000	0.000000	0.000000	0.000000	0.000000	0.000000	0.000000	0.000000	0.000000	0.000000	0.000000	0.000000	0.000000	0.000000	0.000000
1.505000	-0.010253	-0.288316	0.117327	0.068227	0.060097	0.041087	-0.130453	-0.089065	-0.061504	0.142788	0.082801	0.027437	0.146525	0.146525	1.264429	1.270732	0.000000	0.000000	0.000000	0.000000	0.000000	0.000000	0.000000	0.000000	0.000000	0.000000	0.000000	0.000000	0.000000	0.000000	0.000000	0.000000	0.000000	0.000000	0.000000	0.000000	0.000000	0.000000
1.510000	-0.010212	-0.288550	0.117632	0.067973	0.059879	0.040895	-0.130955	-0.089617	-0.061825	0.142609	0.082433	0.027437	0.146525	0.146525	1.269533	1.270644	0.000000	0.000000	0.000000	0.000000	0.000000	0.000000	0.000000	0.000000	0.000000	0.000000	0.000000	0.000000	0.000000	0.000000	0.000000	0.000000	0.000000	0.000000	0.000000	0.000000	0.000000	0.000000
1.515000	-0.010170	-0.288783	0.117938	0.067713	0.059656	0.040700	-0.131461	-0.090173	-0.062151	0.142427	0.082058	0.027437	0.146525	0.146525	1.274824	1.270548	0.000000	0.000000	0.000000	0.000000	0.000000	0.000000	0.000000	0.000000	0.000000	0.000000	0.000000	0.000000	0.000000	0.000000	0.000000	0.000000	0.000000	0.000000	0.000000	0.000000	0.000000	0.000000
